<?xml version="1.0" encoding="utf-8"?>
<!-- Generator: Adobe Illustrator 17.1.0, SVG Export Plug-In . SVG Version: 6.00 Build 0)  -->
<!DOCTYPE svg PUBLIC "-//W3C//DTD SVG 1.1//EN" "http://www.w3.org/Graphics/SVG/1.1/DTD/svg11.dtd">
<svg width="24" height="25" viewBox="0 0 24 25" class="MainNavigation__icon___1QS89" version="1.1" id="Layer_1" xmlns="http://www.w3.org/2000/svg" xmlns:xlink="http://www.w3.org/1999/xlink"  xml:space="preserve"><path d="M9.353 5.334c-5.672 0-8.848-.558-8.848-2.667C.505.556 3.657 0 9.353 0c5.61 0 8.848.58 8.848 2.667 0 2.085-3.263 2.667-8.848 2.667zm0-1.5c4.256 0 7.348-.551 7.348-1.167 0-.619-3.064-1.167-7.348-1.167-4.353 0-7.348.528-7.348 1.167 0 .636 3.024 1.167 7.348 1.167z"></path><path d="M.584 5.88v1.092c0 1.755 3.855 2.667 8.848 2.667s8.848-.912 8.848-2.667V5.88a.75.75 0 1 0-1.5 0v1.092c0-.003-.632.35-1.795.626-1.447.342-3.43.541-5.553.541-2.122 0-4.106-.199-5.553-.541-1.163-.275-1.795-.629-1.795-.626V5.88a.75.75 0 0 0-1.5 0zM.585 10.233v1.003c0 1.515 3.37 2.503 5.94 2.56a.75.75 0 0 0 .034-1.5c-.77-.016-2.012-.223-3.004-.514-.53-.155-.965-.327-1.25-.494-.179-.105-.22-.153-.22-.052v-1.003a.75.75 0 0 0-1.5 0zM2.084 14.358a.75.75 0 0 0-1.5 0v1.141c0 1.337 2.41 2.168 5.842 2.571a.75.75 0 1 0 .175-1.49c-1.366-.16-2.614-.422-3.505-.729-.417-.144-.736-.291-.931-.425-.074-.05-.08-.052-.08.03v-1.098zM20.168 16.46a5.43 5.43 0 1 1-10.86 0 5.43 5.43 0 0 1 10.86 0zm-1.5 0a3.93 3.93 0 1 0-7.86 0 3.93 3.93 0 0 0 7.86 0z"></path><path d="M17.956 20.516l4.016 4.238a.75.75 0 0 0 1.088-1.032l-4.016-4.238a.75.75 0 1 0-1.088 1.032z"/>
</svg>
